<svg xmlns="http://www.w3.org/2000/svg" viewBox="0 0 128 128" role="img" aria-labelledby="title desc">
  <title id="title">Quantis app icon</title>
  <desc id="desc">Saffron and green rounded square with a Devanagari ha letter</desc>
  <defs>
    <linearGradient id="bg" x1="0%" y1="0%" x2="100%" y2="100%">
      <stop offset="0%" stop-color="#ffb357" />
      <stop offset="55%" stop-color="#ff9933" />
      <stop offset="100%" stop-color="#138808" />
    </linearGradient>
  </defs>
  <rect x="8" y="8" width="112" height="112" rx="30" fill="url(#bg)" />
  <circle cx="100" cy="28" r="8" fill="#fff2d9" opacity="0.9" />
  <path d="M31 41h61v10H66v12c0 6 4 10 11 10h8v10h-8c-4 0-7 1-9 3-3 2-4 6-4 10v13H51V96c0-5 1-9 3-13 1-2 4-4 7-6-4-1-7-3-9-6-3-3-4-7-4-12V51H31V41z" fill="#fffaf3" />
</svg>
